<svg xmlns="http://www.w3.org/2000/svg" width="320" height="240" viewBox="0 0 320 240" version="1.1">
	<path d="M 0 43.052 L 0 86.104 2.943 87.130 C 5.611 88.060, 5.783 88.382, 4.783 90.578 C 3.344 93.734, 2.146 93.688, 2.755 90.500 C 3.106 88.667, 2.802 88, 1.617 88 C -0.688 88, -0.515 93.197, 1.839 94.668 C 3.685 95.820, 6.240 95.051, 6.092 93.388 C 6.049 92.900, 7.923 92.607, 10.257 92.739 C 12.590 92.870, 16.418 92.979, 18.762 92.980 C 21.106 92.982, 24.624 93.652, 26.580 94.469 C 28.536 95.286, 30.443 95.912, 30.818 95.859 C 33.100 95.538, 34.148 96.172, 33.618 97.552 C 33.284 98.424, 33.447 98.842, 33.991 98.506 C 34.523 98.177, 35.940 98.433, 37.139 99.075 C 39.170 100.161, 39.197 100.310, 37.540 101.238 C 36.094 102.047, 36.017 102.397, 37.130 103.102 C 37.884 103.579, 39.400 103.941, 40.500 103.906 C 41.600 103.871, 41.938 103.615, 41.250 103.338 C 39.797 102.752, 39.560 101, 40.933 101 C 41.446 101, 42.144 101.877, 42.484 102.949 C 42.833 104.049, 43.689 104.673, 44.450 104.381 C 45.191 104.096, 46.066 104.297, 46.393 104.827 C 46.721 105.357, 46.324 106.045, 45.512 106.357 C 43.783 107.021, 44.375 111.693, 46.797 116.500 C 48.019 118.925, 48.040 119.287, 46.905 118.389 C 46.132 117.779, 43.281 117.209, 40.568 117.124 C 35.416 116.963, 34.516 116.600, 34.476 114.667 C 34.463 114.025, 33.563 113.635, 32.476 113.800 C 31.389 113.965, 29.262 114.153, 27.750 114.217 C 26.238 114.281, 25.014 114.596, 25.031 114.917 C 25.113 116.433, 30.341 119.144, 32.231 118.650 C 34.711 118.001, 38.316 119.680, 37.450 121.081 C 37.117 121.620, 35.356 121.782, 33.537 121.441 C 31.699 121.096, 29.954 121.265, 29.611 121.820 C 28.845 123.060, 29.897 126, 31.107 126 C 32.508 126, 36 129.849, 36 131.393 C 36 133.115, 33.832 134, 29.609 134 C 25.429 134, 22.453 131.867, 23.355 129.518 C 23.729 128.544, 23.522 127.129, 22.895 126.373 C 22.004 125.300, 22.128 125, 23.461 125 C 24.399 125, 24.977 124.437, 24.746 123.750 C 24.514 123.063, 23.417 122.485, 22.307 122.467 C 20.092 122.430, 16.691 119.501, 16.377 117.360 C 16.267 116.612, 16.882 115.606, 17.743 115.124 C 19.813 113.966, 18.581 110.733, 16.253 111.214 C 14.541 111.568, 14.353 112.445, 15.123 116.476 C 15.359 117.713, 14.939 118.482, 14 118.531 C 13.175 118.574, 11.233 119.147, 9.685 119.805 C 8.137 120.462, 6.112 121.036, 5.185 121.079 C 4.144 121.128, 3.978 121.351, 4.750 121.662 C 6.806 122.492, 6.181 123.682, 3 125 L 0 126.243 0 177.744 C 0 223.409, 0.170 229.104, 1.500 228 C 2.337 227.306, 3 227.197, 3 227.755 C 3 228.305, 2.325 229.315, 1.500 230 C 0.584 230.760, -0 232.952, -0 235.625 L 0 240.006 160.250 239.753 L 320.500 239.500 320.678 119.750 L 320.855 0 160.428 0 L 0 0 0 43.052 M 0.354 43.500 L 0.477 86.500 0.750 46.347 C 1.004 8.860, 1.138 6.210, 2.761 6.453 C 3.718 6.596, 3.938 6.520, 3.250 6.283 C 1.640 5.730, 1.640 4.270, 3.250 3.717 C 3.938 3.480, 3.736 3.399, 2.803 3.536 C 1.869 3.673, 0.909 3.046, 0.669 2.143 C 0.428 1.239, 0.287 19.850, 0.354 43.500 M 37.579 3.055 C 35.611 5.040, 35.928 6.225, 38.529 6.607 C 39.536 6.755, 40 5.905, 40 3.912 C 40 0.522, 40.068 0.546, 37.579 3.055 M 6.500 4 C 5.601 5.455, 6.853 7.018, 8.809 6.884 C 10.334 6.779, 10.328 6.723, 8.750 6.311 C 7.787 6.059, 7 5.469, 7 5 C 7 4.531, 7.787 3.941, 8.750 3.689 C 10.328 3.277, 10.334 3.221, 8.809 3.116 C 7.879 3.052, 6.840 3.450, 6.500 4 M 16.030 5.338 C 16.060 7.434, 16.095 7.440, 17.195 5.544 C 18.321 3.603, 18.336 3.603, 19.156 5.544 C 19.941 7.401, 19.971 7.403, 19.742 5.594 C 19.390 2.824, 15.992 2.590, 16.030 5.338 M 21.500 4 C 20.601 5.455, 21.853 7.018, 23.809 6.884 C 25.334 6.779, 25.328 6.723, 23.750 6.311 C 22.788 6.059, 22 5.469, 22 5 C 22 4.531, 22.788 3.941, 23.750 3.689 C 25.328 3.277, 25.334 3.221, 23.809 3.116 C 22.879 3.052, 21.840 3.450, 21.500 4 M 31.030 5.338 C 31.060 7.434, 31.095 7.440, 32.195 5.544 C 33.321 3.603, 33.336 3.603, 34.156 5.544 C 34.941 7.401, 34.971 7.403, 34.742 5.594 C 34.390 2.824, 30.992 2.590, 31.030 5.338 M 11.750 4.662 C 12.438 4.940, 13.563 4.940, 14.250 4.662 C 14.938 4.385, 14.375 4.158, 13 4.158 C 11.625 4.158, 11.063 4.385, 11.750 4.662 M 26.750 4.662 C 27.438 4.940, 28.563 4.940, 29.250 4.662 C 29.938 4.385, 29.375 4.158, 28 4.158 C 26.625 4.158, 26.063 4.385, 26.750 4.662 M 37 5.059 C 37 5.641, 37.450 5.840, 38 5.500 C 38.550 5.160, 39 4.684, 39 4.441 C 39 4.198, 38.550 4, 38 4 C 37.450 4, 37 4.477, 37 5.059 M 160.949 37.562 C 159.159 39.719, 150.140 45.462, 146.500 46.762 C 141.953 48.387, 124.393 50.417, 114.500 50.461 C 107.736 50.492, 98.569 46.866, 93.748 42.255 C 91.087 39.709, 90.951 39.685, 89.610 41.519 C 87.965 43.768, 88.340 45.038, 92.406 51 C 94.094 53.475, 95.537 55.837, 95.613 56.250 C 95.688 56.663, 95.840 57.112, 95.949 57.250 C 96.751 58.256, 97.363 63.357, 97.208 67.750 C 96.639 83.949, 96.926 87.994, 98.643 87.998 C 99.945 88, 101.348 90.986, 100.462 91.871 C 100.140 92.193, 97.542 92.777, 94.689 93.170 C 90.504 93.746, 90.882 93.799, 96.644 93.445 C 102.503 93.085, 103.897 93.290, 104.394 94.585 C 105.213 96.718, 105.157 97.215, 104.167 96.603 C 103.708 96.320, 103.333 96.719, 103.333 97.490 C 103.333 98.562, 103.784 98.651, 105.252 97.865 C 106.308 97.300, 107.403 97.069, 107.686 97.352 C 108.568 98.235, 106.961 100, 105.274 100 C 104.390 100, 103.951 100.284, 104.298 100.631 C 104.645 100.979, 104.428 102.201, 103.814 103.347 C 102.886 105.082, 103.246 104.971, 105.961 102.686 C 108.572 100.489, 109.510 100.179, 110.657 101.131 C 111.446 101.785, 111.840 102.973, 111.534 103.772 C 111.150 104.773, 111.457 105.039, 112.527 104.628 C 113.471 104.266, 114.324 104.710, 114.713 105.767 C 115.063 106.720, 116.621 109.065, 118.175 110.978 C 119.729 112.891, 121 114.835, 121 115.299 C 121 115.763, 121.563 116.771, 122.250 117.539 C 122.938 118.307, 125.075 120.822, 127 123.128 C 128.925 125.434, 131.570 128.452, 132.879 129.834 C 134.187 131.217, 135.646 133.757, 136.121 135.478 C 136.597 137.199, 137.862 139.548, 138.933 140.697 C 140.003 141.847, 140.583 143.084, 140.220 143.446 C 139.858 143.809, 140.222 143.852, 141.030 143.542 C 141.866 143.222, 144.139 144.396, 146.300 146.264 L 150.101 149.549 146.952 151.877 C 144.054 154.020, 143.461 154.109, 139.481 152.995 C 137.103 152.329, 134.653 152.097, 134.035 152.478 C 133.418 152.860, 132.226 152.603, 131.388 151.907 C 129.613 150.434, 112.072 150.104, 105 151.411 C 102.525 151.868, 97.800 153.496, 94.500 155.028 C 85.226 159.333, 80.967 161.089, 75 163.068 L 69.500 164.892 74 164.990 C 76.475 165.043, 80.422 165.459, 82.771 165.913 C 85.119 166.367, 88.494 166.394, 90.271 165.972 L 93.500 165.205 90.083 165.102 C 88.204 165.046, 86.991 164.676, 87.387 164.280 C 88.432 163.235, 92.386 163.341, 93.174 164.436 C 93.572 164.988, 94.503 164.828, 95.447 164.044 C 96.814 162.910, 96.954 162.955, 96.416 164.359 C 96.069 165.261, 95.411 166, 94.952 166 C 93.877 166, 96.048 170.191, 98.278 172.421 C 99.225 173.368, 100 173.634, 100 173.012 C 100 172.391, 100.470 172.172, 101.044 172.527 C 102.260 173.278, 105.203 171.138, 104.506 170.010 C 104.247 169.590, 106.727 168.079, 110.017 166.652 C 113.308 165.225, 116 163.590, 116 163.020 C 116 162.357, 116.687 162.412, 117.904 163.172 C 119.376 164.091, 121.022 164.090, 125.154 163.168 C 134.038 161.185, 135 161.077, 135 162.057 C 135 162.576, 135.477 163, 136.059 163 C 136.641 163, 136.840 162.550, 136.500 162 C 136.160 161.450, 136.584 161, 137.441 161 C 138.298 161, 138.887 161.405, 138.750 161.900 C 138.350 163.340, 139.785 163.196, 143.522 161.422 C 145.570 160.451, 148.037 160.022, 149.504 160.384 C 150.877 160.723, 153.238 161.247, 154.750 161.550 L 157.500 162.100 154.750 160.518 C 150.850 158.274, 151.329 156.976, 155.620 158.161 C 158.134 158.855, 159.570 158.830, 160.320 158.080 C 160.914 157.486, 161.069 157, 160.665 157 C 160.260 157, 160.450 156.028, 161.086 154.840 C 162.048 153.042, 162.382 152.931, 163.078 154.176 C 163.539 154.998, 164.024 157.291, 164.158 159.271 C 164.291 161.251, 164.781 162.635, 165.247 162.347 C 165.713 162.059, 168.146 162.789, 170.655 163.968 C 173.164 165.147, 176.405 165.974, 177.858 165.806 C 180.030 165.554, 180.556 164.922, 180.813 162.250 C 181.127 159.001, 182.889 157.667, 183.125 160.500 C 183.413 163.958, 183.550 164.350, 184.585 164.695 C 185.182 164.894, 187.207 163.186, 189.085 160.900 C 190.963 158.614, 193.327 155.862, 194.338 154.784 C 195.348 153.707, 196.799 151.333, 197.561 149.509 C 198.761 146.636, 198.749 146.118, 197.473 145.628 C 195.260 144.779, 195.692 143.461, 198.620 142.127 C 200.863 141.105, 201.155 141.154, 200.651 142.467 C 199.781 144.735, 201.351 144.331, 204.405 141.500 C 206.969 139.124, 209 138.287, 209 139.606 C 209 139.939, 207.610 141.967, 205.911 144.112 C 202.466 148.463, 198.011 156.771, 198.004 158.858 C 197.996 161.565, 203.474 158.950, 207.741 154.210 C 210.566 151.073, 211.985 150.068, 211.991 151.200 C 211.996 152.135, 211.391 153.260, 210.646 153.700 C 209.359 154.460, 208.635 156.542, 207.495 162.750 C 207.218 164.262, 207.255 164.938, 207.579 164.250 C 208.388 162.530, 210 162.676, 210 164.469 C 210 165.387, 210.583 165.713, 211.557 165.340 C 212.414 165.011, 212.884 164.139, 212.601 163.403 C 212.319 162.667, 212.518 161.798, 213.044 161.473 C 213.570 161.148, 214 161.547, 214 162.359 C 214 163.172, 214.250 164.489, 214.557 165.287 C 214.904 166.192, 214.343 166.939, 213.062 167.274 C 210.878 167.845, 206.562 176.417, 207.382 178.554 C 207.636 179.215, 207.378 180.222, 206.809 180.791 C 205.148 182.452, 206.871 184.352, 208.678 182.852 C 209.932 181.812, 210.122 181.926, 209.839 183.554 C 209.594 184.962, 209.995 185.416, 211.292 185.197 C 212.839 184.935, 212.915 185.163, 211.851 186.866 C 210.464 189.088, 206.588 190.188, 205.164 188.764 C 204.580 188.180, 203.928 188.307, 203.436 189.104 C 202.980 189.842, 203.143 190.548, 203.823 190.774 C 204.470 190.990, 205 191.761, 205 192.486 C 205 193.212, 207.360 196.081, 210.245 198.862 L 215.490 203.918 228.495 204.061 C 235.648 204.139, 246.066 204.251, 251.646 204.310 C 258.502 204.382, 262.287 204.007, 263.318 203.151 C 264.603 202.085, 264.767 202.177, 264.359 203.735 C 264.093 204.752, 262.953 205.653, 261.825 205.738 C 259.056 205.947, 258.389 206.789, 259.842 208.242 C 260.786 209.186, 261.478 209.182, 263.011 208.225 C 264.090 207.551, 266.216 206.986, 267.736 206.968 C 270.373 206.938, 270.412 206.870, 268.573 205.479 C 265.478 203.137, 267.523 202.614, 272.899 204.372 C 278.534 206.215, 279.100 206.300, 278.750 205.250 C 278.613 204.838, 278.950 204.500, 279.500 204.500 C 280.050 204.500, 280.370 204.891, 280.211 205.368 C 280.051 205.846, 281.107 205.939, 282.556 205.575 C 284.029 205.206, 285.780 205.402, 286.526 206.022 C 287.548 206.870, 288.130 206.626, 289.011 204.979 C 289.644 203.796, 290.422 203.088, 290.739 203.406 C 291.056 203.723, 291.920 203.481, 292.658 202.869 C 293.687 202.015, 294 202.134, 294 203.378 C 294 205.286, 295.646 205.558, 296.254 203.750 C 296.485 203.063, 295.365 201.946, 293.766 201.269 C 292.167 200.591, 291.142 199.579, 291.488 199.019 C 291.835 198.458, 291.641 198, 291.059 198 C 290.477 198, 290 198.420, 290 198.934 C 290 199.873, 285.482 199.416, 283.666 198.293 C 283.126 197.960, 283.009 198.206, 283.405 198.845 C 283.797 199.480, 283.641 200, 283.059 200 C 282.143 200, 281.561 197.987, 281.854 195.833 C 281.904 195.466, 280.127 194.859, 277.905 194.484 C 272.989 193.653, 273.627 192.654, 279.303 192.295 C 282.354 192.102, 283.090 192.301, 282 193.021 C 280.968 193.704, 282.244 193.818, 286.093 193.387 C 292.723 192.645, 296.080 193.990, 295.734 197.248 C 295.583 198.666, 296.056 199.454, 297.069 199.472 C 297.932 199.487, 300.264 200.373, 302.250 201.440 C 305.253 203.054, 305.610 203.564, 304.368 204.473 C 303.225 205.309, 303.858 205.471, 307.069 205.165 C 309.986 204.887, 311.053 205.105, 310.573 205.882 C 310.193 206.497, 310.322 207, 310.859 207 C 311.397 207, 312.622 207.301, 313.582 207.670 C 314.639 208.075, 315.083 207.944, 314.708 207.337 C 314.347 206.752, 315.322 206.333, 317.044 206.333 C 319.498 206.333, 320 206.741, 320 208.734 C 320 210.689, 319.624 211.015, 317.978 210.493 C 315.202 209.612, 309.284 210.940, 311.069 212.043 C 311.804 212.497, 312.774 212.639, 313.227 212.360 C 313.679 212.080, 315.369 212.142, 316.984 212.496 C 319.880 213.133, 319.923 213.242, 320.258 220.820 C 320.445 225.044, 320.584 205.100, 320.567 176.500 C 320.551 147.900, 320.408 135.367, 320.251 148.650 C 319.923 176.367, 320.924 174.001, 309.259 174.620 C 305.277 174.831, 300.102 175.671, 297.759 176.487 C 295.417 177.303, 292.711 177.977, 291.746 177.985 C 290.782 177.993, 288.373 178.868, 286.393 179.929 C 284.414 180.990, 282.092 181.589, 281.233 181.259 C 280.323 180.910, 279.931 181.079, 280.292 181.663 C 280.953 182.733, 279.738 182.980, 273.716 182.999 C 271.291 183.007, 269.727 183.548, 269.359 184.506 C 269.044 185.328, 268.159 186, 267.393 186 C 266.627 186, 266 186.349, 266 186.776 C 266 187.203, 264.011 188.437, 261.580 189.520 C 258.246 191.005, 257.416 191.796, 258.203 192.744 C 258.893 193.576, 258.902 194, 258.229 194 C 257.671 194, 256.958 193.333, 256.645 192.517 C 256.306 191.633, 255.421 191.285, 254.454 191.656 C 253.316 192.093, 253.181 192.494, 254.001 193 C 255.841 194.138, 250.955 195.046, 248.904 193.949 C 246.677 192.757, 245.719 192.736, 246.435 193.895 C 246.740 194.388, 246.279 195.063, 245.412 195.395 C 242.875 196.369, 235.174 196.090, 234.500 195 C 234.160 194.450, 231.606 194, 228.824 194 C 224.257 194, 223.818 193.806, 224.290 191.998 C 224.613 190.762, 224.179 189.619, 223.157 189.014 C 221.696 188.148, 221.767 187.957, 223.750 187.399 C 224.988 187.051, 226 186.171, 226 185.442 C 226 184.714, 226.408 183.866, 226.907 183.558 C 227.405 183.249, 227.591 184.010, 227.320 185.249 C 226.933 187.013, 227.050 187.181, 227.859 186.028 C 228.750 184.759, 228.983 184.793, 229.553 186.278 C 230.230 188.043, 234 188.730, 234 187.088 C 234 186.587, 234.787 186.298, 235.750 186.447 C 236.713 186.595, 237.742 186.346, 238.038 185.892 C 238.334 185.439, 239.722 185.662, 241.122 186.388 C 243.532 187.638, 243.643 187.584, 243.217 185.354 C 242.885 183.618, 243.220 183, 244.490 183 C 245.637 183, 246.015 182.481, 245.618 181.448 C 245.261 180.516, 245.439 180.153, 246.063 180.539 C 247.479 181.414, 251.509 176.900, 251.487 174.465 C 251.477 173.384, 251.843 171.968, 252.301 171.317 C 252.792 170.620, 252.460 169.106, 251.495 167.633 C 250.222 165.690, 250.043 164.188, 250.693 160.902 C 251.498 156.829, 251.596 156.739, 253.329 158.472 C 254.672 159.815, 255.417 159.983, 256.264 159.136 C 257.513 157.887, 261.392 157.547, 260.664 158.750 C 260.414 159.162, 260.889 160.128, 261.719 160.896 C 263.039 162.117, 263.136 162.005, 262.498 159.994 C 261.949 158.265, 262.107 157.835, 263.135 158.253 C 263.886 158.558, 265.229 159.102, 266.121 159.462 C 267.125 159.866, 267.970 159.522, 268.340 158.557 C 268.668 157.701, 268.501 157, 267.969 157 C 267.436 157, 267 156.325, 267 155.500 C 267 154.649, 267.897 154, 269.071 154 C 270.211 154, 271.808 153.335, 272.621 152.522 C 273.434 151.709, 274.639 150.697, 275.299 150.272 C 275.960 149.847, 277.313 148.037, 278.307 146.250 L 280.113 143 276.140 143 C 273.866 143, 271.976 143.535, 271.720 144.250 C 271.475 144.938, 270.875 145.124, 270.387 144.664 C 269.112 143.462, 273.758 140, 276.646 140 C 278.817 140, 278.950 139.776, 277.919 137.848 C 276.938 136.016, 277.007 135.789, 278.384 136.317 C 279.273 136.658, 280 136.591, 280 136.169 C 280 134.903, 277.838 133.138, 276.628 133.414 C 276.008 133.556, 275.837 133.483, 276.250 133.253 C 277.579 132.509, 277.049 131.152, 275.250 130.691 C 274.288 130.444, 275.221 130.374, 277.324 130.536 C 279.990 130.741, 281.008 130.464, 280.686 129.623 C 279.979 127.781, 282.178 125.411, 285.321 124.629 C 289.073 123.694, 288.378 122.157, 282.439 118.254 C 279.722 116.469, 277.025 114.669, 276.445 114.254 C 273.507 112.153, 271.331 110.885, 269.750 110.354 C 268.788 110.031, 268 109.369, 268 108.883 C 268 108.398, 267.100 108, 266 108 C 263.270 108, 263.486 106.613, 266.466 105.018 C 268.484 103.938, 269.215 103.933, 270.490 104.992 C 271.347 105.703, 272.374 105.959, 272.773 105.561 C 273.449 104.884, 271.474 102.996, 268.008 101.007 C 267.188 100.535, 266.848 99.819, 267.252 99.414 C 267.657 99.010, 268.890 99.496, 269.994 100.494 C 271.808 102.137, 272 102.151, 272 100.641 C 272 98.681, 270.271 95.401, 267.576 92.250 C 265.826 90.205, 265.807 90, 267.368 90 C 270.771 90, 271.824 87.883, 270.085 84.543 C 269.213 82.869, 267.938 81.140, 267.250 80.700 C 266.563 80.260, 266 79.230, 266 78.410 C 266 77.031, 258.259 69.041, 256.896 69.012 C 256.266 68.999, 252.028 65.454, 248.370 61.879 C 247.199 60.735, 243.149 58.907, 239.370 57.818 C 235.592 56.728, 230.250 55.168, 227.500 54.350 C 220.973 52.410, 212.464 52.643, 205.824 54.945 C 202.896 55.961, 197.658 57.111, 194.184 57.501 C 188.591 58.130, 187.161 58.782, 181.684 63.197 L 175.500 68.182 168.500 67.579 C 162.007 67.019, 161.681 67.083, 164 68.452 C 168.367 71.032, 176.507 70.384, 184.183 66.846 C 190.963 63.721, 193.429 63.573, 191.054 66.435 C 190.376 67.251, 186.375 69.987, 182.161 72.514 C 175.996 76.212, 173.768 77.044, 170.750 76.778 C 168.688 76.596, 167 76.550, 167 76.677 C 167 77.779, 169.506 82, 170.161 82 C 171.128 82, 171.258 87.435, 170.370 90.750 C 170.038 91.987, 169.121 93, 168.331 93 C 167.542 93, 166.436 94.320, 165.873 95.934 C 165.311 97.548, 163.844 99.528, 162.614 100.334 C 160.327 101.832, 158 107.801, 158 112.167 C 158 114.909, 155.894 119.980, 154.750 119.992 C 154.338 119.996, 154 120.675, 154 121.500 C 154 122.325, 153.550 123, 153 123 C 152.450 123, 152 122.550, 152 122 C 152 120.423, 149.001 120.835, 148.362 122.500 C 147.685 124.264, 145 124.530, 145 122.833 C 145 122.192, 144.702 121.965, 144.338 122.329 C 143.514 123.153, 137.805 118.855, 133.073 113.847 C 131.108 111.767, 128.049 108.998, 126.275 107.694 C 123.052 105.325, 123.051 105.322, 125.015 103.214 C 127.493 100.555, 126.411 99.883, 120.600 100.471 C 118.070 100.727, 116 100.573, 116 100.129 C 116 99.092, 121.184 96.557, 122.500 96.949 C 123.050 97.113, 124.773 97.412, 126.329 97.613 C 129.862 98.070, 131.200 98.867, 130.457 100.069 C 130.141 100.581, 131.510 101, 133.500 101 C 135.823 101, 136.880 100.616, 136.454 99.926 C 136.090 99.336, 137.563 99.757, 139.729 100.862 C 142.687 102.371, 143.667 102.537, 143.667 101.531 C 143.667 100.794, 143.112 100.403, 142.434 100.664 C 140.109 101.556, 139.870 98.984, 142.186 97.987 C 144.157 97.138, 143.981 97.065, 141 97.493 C 138.338 97.875, 137.979 97.773, 139.500 97.068 C 140.600 96.558, 142.625 96.080, 144 96.007 L 146.500 95.873 144.105 94.915 C 141.246 93.771, 141.633 93.250, 146.676 91.452 L 150.500 90.088 143.417 90.044 C 137.807 90.009, 136.333 89.688, 136.333 88.500 C 136.333 87.675, 137.006 87, 137.827 87 C 139.954 87, 145.037 81.013, 145.700 77.729 C 146.426 74.129, 147.639 73.469, 150.607 75.057 C 152.705 76.180, 153.199 76.109, 154.360 74.522 C 155.095 73.517, 156.209 73.011, 156.835 73.398 C 158.031 74.137, 157.895 69.257, 156.664 67.265 C 155.774 65.826, 152.115 65.005, 151.442 66.094 C 151.134 66.592, 150.426 67, 149.870 67 C 149.313 67, 149.564 66.293, 150.429 65.429 C 152.593 63.264, 152.395 62, 149.893 62 C 148.383 62, 147.958 61.552, 148.393 60.418 C 148.727 59.548, 149 57.973, 149 56.918 C 149 55.863, 149.525 55, 150.167 55 C 150.808 55, 151.040 55.293, 150.682 55.651 C 149.405 56.928, 153.351 58.733, 155.927 58.050 C 158.039 57.490, 158.557 56.682, 158.819 53.544 C 158.994 51.440, 159.813 49.045, 160.638 48.220 C 164.004 44.853, 165.176 42.076, 164.509 39.041 C 163.761 35.637, 162.857 35.262, 160.949 37.562 M 136 74.078 C 129.907 74.846, 127 75.798, 127 77.025 C 127 77.471, 126.718 78.571, 126.374 79.469 C 125.850 80.833, 126.220 80.986, 128.624 80.396 C 130.206 80.008, 131.650 79.310, 131.833 78.845 C 132.017 78.380, 133.031 78, 134.087 78 C 136.376 78, 143.469 74.365, 142.308 73.788 C 141.864 73.566, 139.025 73.697, 136 74.078 M 123.583 75.643 C 122.665 78.037, 123.381 78.221, 124.796 75.955 C 125.468 74.880, 125.611 74, 125.115 74 C 124.620 74, 123.930 74.739, 123.583 75.643 M 107 77.500 C 107.685 78.325, 109.341 79, 110.681 79 C 112.022 79, 112.886 79.375, 112.603 79.833 C 112.320 80.292, 112.743 80.667, 113.544 80.667 C 115.507 80.667, 115.405 77.369, 113.418 76.607 C 112.548 76.273, 110.468 76, 108.796 76 C 106.206 76, 105.940 76.223, 107 77.500 M 234 86 C 234 86.550, 234.398 87, 234.883 87 C 236.217 87, 236.965 92.327, 235.825 93.706 C 235.277 94.370, 235.161 95.452, 235.568 96.111 C 236.037 96.869, 235.885 97.047, 235.155 96.595 C 234.479 96.178, 234 96.501, 234 97.374 C 234 98.194, 233.100 99.151, 232.001 99.500 C 230.329 100.030, 230.182 100.471, 231.104 102.194 C 231.910 103.700, 231.907 104.440, 231.091 104.944 C 230.273 105.449, 230.282 106.509, 231.123 108.924 C 231.998 111.433, 231.989 112.389, 231.085 112.948 C 230.260 113.458, 230.783 114.626, 232.804 116.790 C 235.577 119.759, 235.613 119.913, 233.604 120.200 C 232.447 120.365, 231.439 121.175, 231.365 122 C 231.291 122.825, 231.179 124.063, 231.115 124.750 C 231.052 125.438, 229.988 126.007, 228.750 126.015 C 226.931 126.028, 226.787 126.216, 228 127 C 229.282 127.828, 229.246 127.972, 227.750 127.985 C 226.768 127.993, 225.986 128.768, 225.968 129.750 C 225.938 131.417, 225.873 131.417, 224.608 129.750 C 221.708 125.930, 220.915 129.414, 223.712 133.683 C 224.654 135.121, 225.368 137.917, 225.300 139.898 C 225.231 141.882, 225.391 142.489, 225.657 141.250 C 225.922 140.012, 226.558 139, 227.070 139 C 227.581 139, 228 138.403, 228 137.674 C 228 136.945, 229.125 135.292, 230.500 134 C 231.956 132.632, 233 130.536, 233 128.981 C 233 127.512, 233.900 125.495, 235 124.500 C 236.100 123.505, 237 122.262, 237 121.738 C 237 119.942, 247.500 110.928, 250.500 110.150 C 253.247 109.437, 253.507 108.998, 253.581 104.936 C 253.673 99.952, 254.767 96.738, 256.093 97.558 C 256.579 97.858, 256.707 97.400, 256.377 96.539 C 256.046 95.679, 256.343 94.291, 257.037 93.456 C 258.074 92.206, 257.961 91.683, 256.398 90.501 C 253.904 88.612, 251 88.612, 251 90.500 C 251 93.487, 244.231 91.225, 240.760 87.079 C 238.993 84.968, 234 84.171, 234 86 M 122.500 89 C 121.505 90.100, 119.972 91.036, 119.095 91.079 C 118.061 91.130, 117.940 91.335, 118.750 91.662 C 119.438 91.940, 120 92.888, 120 93.770 C 120 94.960, 120.775 94.632, 123 92.500 C 125.869 89.751, 126.947 87, 125.155 87 C 124.690 87, 123.495 87.900, 122.500 89 M 0.232 91 C 0.232 92.925, 0.438 93.713, 0.689 92.750 C 0.941 91.787, 0.941 90.213, 0.689 89.250 C 0.438 88.287, 0.232 89.075, 0.232 91 M 9.265 89.815 C 8.529 90.283, 9.412 90.600, 11.450 90.600 C 13.331 90.600, 14.648 90.240, 14.376 89.800 C 13.748 88.783, 10.876 88.792, 9.265 89.815 M 5.219 96.938 C 4.274 97.921, 2.825 98.977, 2 99.284 C 0.926 99.684, 1.068 99.860, 2.500 99.906 C 3.600 99.941, 5.097 99.591, 5.827 99.128 C 6.597 98.640, 8.905 98.871, 11.327 99.679 C 18.777 102.165, 18.712 102.119, 16.186 103.092 C 14.913 103.582, 14.167 104.461, 14.528 105.046 C 14.969 105.759, 15.966 105.597, 17.557 104.554 C 18.862 103.699, 20.572 103, 21.358 103 C 22.143 103, 23.074 102.250, 23.426 101.333 C 23.876 100.159, 24.379 99.979, 25.125 100.725 C 25.872 101.472, 25.861 102.390, 25.090 103.832 C 24.367 105.182, 24.336 106.089, 24.997 106.498 C 27.135 107.820, 25.891 109.211, 22.956 108.780 C 21.282 108.535, 19.703 108.672, 19.447 109.085 C 18.772 110.178, 23.689 110.996, 29.829 110.814 C 34.756 110.667, 34.982 110.558, 32.829 109.363 C 31.548 108.652, 31.111 108.055, 31.857 108.035 C 32.647 108.015, 32.973 107.373, 32.638 106.500 C 32.322 105.675, 32.499 105, 33.031 105 C 33.564 105, 34 104.550, 34 104 C 34 103.450, 33.298 103, 32.441 103 C 31.515 103, 31.172 102.530, 31.597 101.842 C 32.086 101.052, 31.640 100.861, 30.191 101.240 C 28.888 101.581, 28.152 101.352, 28.284 100.647 C 28.426 99.896, 26.096 99.396, 21.528 99.199 C 17.693 99.034, 14.318 98.584, 14.028 98.199 C 13.737 97.815, 12.024 96.971, 10.219 96.325 C 7.401 95.316, 6.695 95.403, 5.219 96.938 M 27.500 97 C 27.160 97.550, 27.359 98, 27.941 98 C 28.523 98, 29 97.550, 29 97 C 29 96.450, 28.802 96, 28.559 96 C 28.316 96, 27.840 96.450, 27.500 97 M 149.813 97.683 C 150.534 97.972, 151.397 97.936, 151.729 97.604 C 152.061 97.272, 151.471 97.036, 150.417 97.079 C 149.252 97.127, 149.015 97.364, 149.813 97.683 M 217.991 100.295 C 217.203 101.508, 216.545 104.300, 216.529 106.500 C 216.503 110.074, 216.244 110.490, 214.101 110.405 C 211.851 110.315, 211.816 110.392, 213.542 111.655 C 214.554 112.395, 214.846 113, 214.191 113 C 213.536 113, 213 113.705, 213 114.567 C 213 115.634, 212.412 115.948, 211.161 115.551 C 210.150 115.230, 207.626 115.676, 205.553 116.542 C 203.480 117.408, 201.562 117.896, 201.292 117.625 C 200.859 117.192, 196.951 120.349, 192.100 125.051 C 191.220 125.903, 189.262 127.376, 187.750 128.324 C 186.238 129.271, 185 130.737, 185 131.582 C 185 132.427, 184.530 132.828, 183.956 132.473 C 183.382 132.118, 182.370 132.278, 181.706 132.829 C 181.043 133.379, 180.162 133.868, 179.750 133.915 C 179.338 133.962, 178.662 134.032, 178.250 134.070 C 177.838 134.109, 178.400 134.527, 179.500 135 C 181.168 135.717, 181.215 135.871, 179.781 135.930 C 178.720 135.973, 178.271 136.544, 178.608 137.422 C 179.308 139.244, 177.201 143.243, 175.950 142.469 C 175.427 142.146, 175 142.385, 175 143 C 175 143.615, 174.633 143.891, 174.184 143.614 C 173.366 143.108, 167.523 144.859, 165.334 146.265 C 164.693 146.677, 162.943 146.548, 161.445 145.979 C 159.948 145.410, 158.519 145.148, 158.270 145.397 C 157.679 145.987, 159.277 148.837, 160.250 148.929 C 161.665 149.063, 164.833 152.833, 164.167 153.590 C 163.800 154.007, 165.181 153.337, 167.235 152.101 C 169.585 150.688, 171.724 150.095, 173.003 150.501 C 174.395 150.943, 176.003 150.333, 178.095 148.573 C 179.777 147.158, 181.500 146, 181.923 146 C 182.347 146, 184.293 144.537, 186.249 142.750 C 192.208 137.302, 194.052 136.355, 199.791 135.793 C 200.501 135.724, 200.934 134.954, 200.753 134.083 C 200.572 133.213, 199.624 132.567, 198.648 132.650 C 196.960 132.792, 196.962 132.692, 198.686 130.650 C 199.684 129.467, 200.950 128.169, 201.500 127.765 C 202.098 127.326, 201.935 127.024, 201.094 127.015 C 198.436 126.986, 193.034 131.916, 193.693 133.771 C 194.210 135.228, 193.983 135.185, 192.250 133.500 C 190.391 131.693, 190.346 131.380, 191.788 130.250 C 192.665 129.563, 193.888 129, 194.506 129 C 195.124 129, 196.384 127.417, 197.307 125.482 C 198.230 123.547, 200.001 121.559, 201.242 121.063 C 205.768 119.258, 207.557 118.756, 210.445 118.482 C 212.749 118.263, 213.021 118.409, 211.695 119.151 C 209.813 120.204, 209.412 122, 211.059 122 C 211.641 122, 211.793 121.474, 211.395 120.830 C 210.909 120.043, 211.217 119.869, 212.336 120.299 C 213.251 120.650, 214 120.501, 214 119.969 C 214 119.436, 214.666 119, 215.481 119 C 216.295 119, 217.223 117.763, 217.541 116.250 C 217.860 114.737, 218.544 112.719, 219.060 111.764 C 220.292 109.488, 220.260 107, 219 107 C 217.465 107, 217.813 103.009, 219.401 102.399 C 220.172 102.104, 220.710 101.231, 220.597 100.460 C 220.244 98.057, 219.478 98.009, 217.991 100.295 M 7 103.590 C 7 104.366, 6.155 105, 5.122 105 C 2.870 105, 0.569 107.494, 1.473 108.956 C 2.399 110.454, 10.551 110.246, 11.841 108.691 C 12.665 107.699, 12.210 106.752, 9.964 104.781 C 7.977 103.038, 7 102.645, 7 103.590 M 28.262 105.690 C 29.192 106.620, 30.288 107.046, 30.697 106.636 C 31.107 106.226, 30.780 105.473, 29.971 104.961 C 27.536 103.421, 26.455 103.883, 28.262 105.690 M 4.500 108 C 4.840 108.550, 5.316 109, 5.559 109 C 5.802 109, 6 108.550, 6 108 C 6 107.450, 5.523 107, 4.941 107 C 4.359 107, 4.160 107.450, 4.500 108 M 34.500 108 C 34.840 108.550, 35.316 109, 35.559 109 C 35.802 109, 36 108.550, 36 108 C 36 107.450, 35.523 107, 34.941 107 C 34.359 107, 34.160 107.450, 34.500 108 M 10.500 114 C 10.160 114.550, 10.359 115, 10.941 115 C 11.523 115, 12 114.550, 12 114 C 12 113.450, 11.802 113, 11.559 113 C 11.316 113, 10.840 113.450, 10.500 114 M 3.500 119 C 3.840 119.550, 4.316 120, 4.559 120 C 4.802 120, 5 119.550, 5 119 C 5 118.450, 4.523 118, 3.941 118 C 3.359 118, 3.160 118.450, 3.500 119 M 43 120 C 43 120.550, 43.450 121, 44 121 C 44.550 121, 45 120.550, 45 120 C 45 119.450, 44.550 119, 44 119 C 43.450 119, 43 119.450, 43 120 M 8.500 122 C 7.801 123.131, 7.720 123.080, 10.750 123.416 C 12.083 123.564, 13 123.122, 13 122.333 C 13 120.786, 9.414 120.521, 8.500 122 M 41.183 124.217 C 39.680 125.720, 39.667 127.676, 41.155 128.595 C 41.885 129.047, 42.037 128.869, 41.568 128.111 C 41.161 127.452, 41.381 126.246, 42.056 125.432 C 43.566 123.613, 42.822 122.578, 41.183 124.217 M 203.991 125.511 C 202.962 126.750, 203.111 127, 204.878 127 C 206.045 127, 207 126.577, 207 126.059 C 207 124.327, 205.240 124.006, 203.991 125.511 M 210 127 C 210 127.550, 210.450 128, 211 128 C 211.550 128, 212 127.550, 212 127 C 212 126.450, 211.550 126, 211 126 C 210.450 126, 210 126.450, 210 127 M 52.079 128.583 C 52.127 129.748, 52.364 129.985, 52.683 129.188 C 52.972 128.466, 52.936 127.603, 52.604 127.271 C 52.272 126.939, 52.036 127.529, 52.079 128.583 M 207.015 130.750 C 207.024 131.749, 207.351 132.071, 207.777 131.500 C 208.187 130.950, 208.931 130.162, 209.428 129.750 C 209.926 129.338, 209.583 129, 208.667 129 C 207.740 129, 207.007 129.777, 207.015 130.750 M 44.229 137.496 C 44.406 139.637, 44.635 139.793, 45.836 138.592 C 46.606 137.822, 46.932 136.699, 46.559 136.096 C 45.349 134.137, 44.017 134.938, 44.229 137.496 M 3.597 137.844 C 3.251 138.404, 3.455 139.163, 4.050 139.531 C 5.588 140.481, 6.580 139.180, 5.296 137.896 C 4.578 137.178, 4.019 137.161, 3.597 137.844 M 167.116 138.168 C 167.052 139.086, 166.741 140.661, 166.424 141.668 C 165.879 143.404, 165.909 143.407, 166.992 141.719 C 167.620 140.739, 167.931 139.164, 167.683 138.219 C 167.277 136.670, 167.221 136.665, 167.116 138.168 M 215.801 142.500 C 215.456 143.600, 214.921 146.300, 214.611 148.500 L 214.048 152.500 215.559 148.500 C 216.391 146.300, 216.926 143.600, 216.749 142.500 L 216.426 140.500 215.801 142.500 M 16.667 143.667 C 15.516 144.817, 15.938 146, 17.500 146 C 18.325 146, 19 145.325, 19 144.500 C 19 142.938, 17.817 142.516, 16.667 143.667 M 44 146 C 44 146.550, 43.190 147, 42.200 147 C 39.230 147, 38.017 148.915, 39.132 151.847 C 39.899 153.864, 39.771 154.694, 38.559 155.581 C 37.702 156.208, 37 157.039, 37 157.428 C 37 157.818, 38.288 157.219, 39.863 156.098 C 41.437 154.976, 42.979 154.312, 43.288 154.621 C 44.183 155.516, 49.260 147.230, 48.536 146.058 C 47.706 144.715, 44 144.667, 44 146 M 29.571 147.571 C 27.619 149.524, 27.488 154, 29.383 154 C 30.716 154, 32.007 151.406, 32.494 147.750 C 32.783 145.579, 31.634 145.508, 29.571 147.571 M 109 152.347 C 104.795 153.859, 101.111 155.921, 102.500 155.985 C 103.050 156.010, 102.825 156.467, 102 157 C 100.718 157.828, 100.754 157.972, 102.250 157.985 C 103.213 157.993, 104 157.523, 104 156.941 C 104 156.359, 104.480 156.179, 105.067 156.541 C 105.653 156.904, 106.666 156.498, 107.317 155.640 C 108.997 153.425, 115.521 152.228, 124.112 152.559 L 131.500 152.843 125.500 152.030 C 116.807 150.852, 112.949 150.926, 109 152.347 M 124.750 156.662 C 125.438 156.940, 126.563 156.940, 127.250 156.662 C 127.938 156.385, 127.375 156.158, 126 156.158 C 124.625 156.158, 124.063 156.385, 124.750 156.662 M 148.500 158 C 148.160 158.550, 148.359 159, 148.941 159 C 149.523 159, 150 158.550, 150 158 C 150 157.450, 149.802 157, 149.559 157 C 149.316 157, 148.840 157.450, 148.500 158 M 171.459 160.067 C 171.096 160.653, 171.014 161.348, 171.276 161.610 C 171.538 161.872, 172.019 161.392, 172.345 160.543 C 173.021 158.781, 172.445 158.471, 171.459 160.067 M 246.133 160.686 C 245.126 161.776, 245.060 162.460, 245.883 163.283 C 247.454 164.854, 249.503 162.711, 248.354 160.700 C 247.600 159.382, 247.340 159.380, 246.133 160.686 M 101.250 161.089 C 100.013 161.555, 99 162.351, 99 162.859 C 99 164.617, 103.991 165.070, 106.767 163.563 L 109.500 162.080 106.833 162.040 C 105.367 162.018, 104.017 161.605, 103.833 161.122 C 103.646 160.629, 102.513 160.615, 101.250 161.089 M 285.917 161.396 C 285.688 161.613, 281.675 161.951, 277 162.146 C 271.251 162.385, 268.145 162.953, 267.403 163.901 C 266.532 165.013, 265.655 165.075, 263.153 164.203 C 260.162 163.160, 260 163.233, 260 165.611 C 260 166.990, 259.592 167.866, 259.093 167.558 C 258.594 167.249, 258.660 168.540, 259.239 170.427 C 260.354 174.061, 264.604 176.259, 266.036 173.942 C 266.517 173.163, 267.319 173.079, 268.415 173.692 C 270.976 175.126, 279 172.956, 279 170.829 C 279 169.516, 279.762 169.164, 282.250 169.331 C 284.038 169.450, 286.015 169.872, 286.645 170.268 C 288.198 171.245, 289.128 168.528, 287.722 167.122 C 286.893 166.293, 287.159 166, 288.741 166 C 291.674 166, 292.690 163.993, 290.101 163.316 C 288.945 163.014, 288 162.369, 288 161.883 C 288 160.985, 286.675 160.675, 285.917 161.396 M 143.597 162.844 C 143.251 163.404, 143.404 164.132, 143.938 164.461 C 145.364 165.343, 150.085 163.947, 149.404 162.845 C 149.047 162.267, 148.345 162.299, 147.587 162.928 C 146.741 163.630, 146.017 163.617, 145.289 162.889 C 144.575 162.175, 144.019 162.160, 143.597 162.844 M 158 163 C 158 163.550, 158.810 164, 159.800 164 C 160.790 164, 162.037 164.338, 162.571 164.750 C 163.105 165.162, 162.695 164.713, 161.660 163.750 C 159.564 161.801, 158 161.480, 158 163 M 129.175 165.868 C 127.116 167.421, 124.450 174.783, 125.549 175.882 C 126.101 176.434, 130 172.961, 130 171.918 C 130 171.494, 129.316 171.001, 128.480 170.823 C 127.291 170.570, 127.531 169.886, 129.581 167.685 C 132.661 164.376, 132.444 163.402, 129.175 165.868 M 66.813 165.683 C 67.534 165.972, 68.397 165.936, 68.729 165.604 C 69.061 165.272, 68.471 165.036, 67.417 165.079 C 66.252 165.127, 66.015 165.364, 66.813 165.683 M 112.813 167.683 C 113.534 167.972, 114.397 167.936, 114.729 167.604 C 115.061 167.272, 114.471 167.036, 113.417 167.079 C 112.252 167.127, 112.015 167.364, 112.813 167.683 M 127.909 176.757 C 126.442 177.060, 123.546 185.880, 124.576 186.909 C 125.290 187.623, 128.979 183.774, 128.430 182.887 C 128.143 182.422, 128.408 181.107, 129.019 179.965 C 130.384 177.415, 130.006 176.324, 127.909 176.757 M 272 178.750 C 272 179.529, 272.534 179.989, 273.188 179.771 C 275.001 179.166, 275.257 177.333, 273.528 177.333 C 272.688 177.333, 272 177.971, 272 178.750 M 277 178.941 C 277 179.459, 277.450 180.160, 278 180.500 C 278.550 180.840, 279 180.416, 279 179.559 C 279 178.702, 278.550 178, 278 178 C 277.450 178, 277 178.423, 277 178.941 M 318 183.059 C 318 183.641, 317.624 183.886, 317.164 183.602 C 316.705 183.317, 315.017 183.477, 313.414 183.957 C 311.078 184.655, 310.929 184.845, 312.667 184.914 C 313.858 184.961, 314.983 185.439, 315.167 185.974 C 315.759 187.706, 320 185.871, 320 183.883 C 320 182.848, 319.550 182, 319 182 C 318.450 182, 318 182.477, 318 183.059 M 287 186.031 C 287 186.564, 287.675 187, 288.500 187 C 289.325 187, 290 186.823, 290 186.607 C 290 186.391, 289.325 185.955, 288.500 185.638 C 287.675 185.322, 287 185.499, 287 186.031 M 214.250 186.662 C 212.884 187.214, 212.508 190, 213.800 190 C 214.240 190, 215.140 189.460, 215.800 188.800 C 218.004 186.596, 217.191 185.476, 214.250 186.662 M 316 188.383 C 316 188.594, 316.901 189.002, 318.001 189.290 C 319.102 189.578, 319.751 189.405, 319.442 188.907 C 318.904 188.036, 316 187.594, 316 188.383 M 269.638 190.500 C 269.322 191.325, 269.499 192, 270.031 192 C 270.564 192, 271 191.583, 271 191.073 C 271 190.564, 271.788 189.941, 272.750 189.689 C 274.130 189.329, 274.047 189.208, 272.357 189.116 C 271.178 189.052, 269.955 189.675, 269.638 190.500 M 297 192 C 297 194.209, 297.745 194.458, 300 193 C 301.090 192.296, 301.142 192.026, 300.191 192.015 C 299.471 192.007, 299.160 191.550, 299.500 191 C 299.840 190.450, 299.416 190, 298.559 190 C 297.667 190, 297 190.855, 297 192 M 237 193 C 235.718 193.828, 235.754 193.972, 237.250 193.985 C 238.213 193.993, 239 193.550, 239 193 C 239 191.780, 238.887 191.780, 237 193 M 266.583 192.866 C 266.152 193.563, 266.070 194.403, 266.400 194.733 C 267.295 195.628, 268.271 194.312, 267.787 192.862 C 267.449 191.846, 267.213 191.846, 266.583 192.866 M 306.678 192.776 C 304.916 193.161, 304.916 193.219, 306.678 194.555 C 308.799 196.163, 313 196.459, 313 195 C 313 194.450, 314.012 193.993, 315.250 193.985 C 316.488 193.976, 318.175 193.523, 319 192.978 C 320.063 192.275, 318.754 192.043, 314.500 192.182 C 311.200 192.289, 307.680 192.556, 306.678 192.776 M 8.035 194.934 C 7.466 195.998, 7 197.573, 7 198.434 C 7 199.295, 6.647 200, 6.216 200 C 5.784 200, 4.677 201.277, 3.754 202.839 C 2.501 204.960, 2.365 205.965, 3.215 206.815 C 4.065 207.665, 3.929 208.421, 2.676 209.805 C 0.618 212.080, 0.594 212.992, 2.494 216.636 C 3.557 218.675, 3.989 218.977, 3.994 217.683 C 3.998 216.361, 4.512 216.028, 5.877 216.461 C 7.369 216.935, 8.210 216.086, 9.985 212.310 C 11.212 209.699, 12.955 206.949, 13.858 206.200 C 15.592 204.760, 15.580 204.761, 10.250 206.430 C 7.576 207.267, 7.464 206.748, 9.610 203.473 C 10.495 202.121, 10.965 200.351, 10.654 199.540 C 10.342 198.728, 10.475 197.824, 10.950 197.531 C 11.996 196.885, 11.112 193, 9.919 193 C 9.452 193, 8.605 193.870, 8.035 194.934 M 303.031 194.500 C 303.031 196.646, 304.671 197.784, 308.750 198.465 C 311.087 198.856, 313 199.534, 313 199.972 C 313 200.409, 314.462 200.653, 316.250 200.514 C 318.488 200.339, 319.614 199.685, 319.865 198.412 C 320.181 196.816, 320.010 196.746, 318.616 197.904 C 317.390 198.921, 316.340 198.988, 314.251 198.184 C 312.738 197.602, 309.925 196.815, 308 196.437 C 306.075 196.058, 304.169 195.243, 303.765 194.624 C 303.358 194.002, 303.031 193.946, 303.031 194.500 M 314.500 196 C 314.160 196.550, 314.610 197, 315.500 197 C 316.390 197, 316.840 196.550, 316.500 196 C 316.160 195.450, 315.710 195, 315.500 195 C 315.290 195, 314.840 195.450, 314.500 196 M 265.250 196.720 C 264.563 196.966, 264 197.901, 264 198.798 C 264 200.282, 264.152 200.277, 265.690 198.738 C 267.498 196.930, 267.293 195.991, 265.250 196.720 M 276.500 197 C 276.840 197.550, 277.568 198, 278.118 198 C 278.668 198, 278.840 197.550, 278.500 197 C 278.160 196.450, 277.432 196, 276.882 196 C 276.332 196, 276.160 196.450, 276.500 197 M 234.380 198.194 C 234.106 198.637, 235.709 199, 237.941 199 C 240.173 199, 242 198.824, 242 198.609 C 242 197.809, 234.859 197.419, 234.380 198.194 M 219 199.340 C 219 200.184, 220.021 200.750, 221.542 200.750 C 224.387 200.750, 224.383 200.730, 221.250 199.100 C 219.427 198.152, 219 198.197, 219 199.340 M 309 203 C 309 204.253, 310.061 204.253, 312 203 C 313.213 202.216, 313.069 202.028, 311.250 202.015 C 310.012 202.007, 309 202.450, 309 203 M 314 203.858 C 314 204.886, 317.029 206.304, 317.729 205.605 C 317.972 205.361, 317.233 204.660, 316.086 204.046 C 314.938 203.432, 314 203.347, 314 203.858 M 234.250 205.662 C 233.563 205.940, 233 206.762, 233 207.489 C 233 208.541, 233.510 208.576, 235.492 207.656 C 239.360 205.862, 238.234 204.055, 234.250 205.662 M 298.500 206 C 297.400 206.473, 296.801 206.891, 297.168 206.930 C 297.536 206.968, 298.473 207.244, 299.252 207.543 C 300.095 207.867, 300.667 207.463, 300.667 206.543 C 300.667 205.694, 300.629 205.032, 300.583 205.070 C 300.538 205.109, 299.600 205.527, 298.500 206 M 293 207 C 293 207.550, 293.675 208, 294.500 208 C 295.325 208, 296 207.550, 296 207 C 296 206.450, 295.325 206, 294.500 206 C 293.675 206, 293 206.450, 293 207 M 227.441 208.450 C 225.566 209.851, 225.577 209.881, 227.750 209.334 C 228.988 209.022, 230 208.369, 230 207.883 C 230 206.693, 229.705 206.759, 227.441 208.450 M 242.500 208 C 242.840 208.550, 243.568 209, 244.118 209 C 244.668 209, 244.840 208.550, 244.500 208 C 244.160 207.450, 243.432 207, 242.882 207 C 242.332 207, 242.160 207.450, 242.500 208 M 248.425 207.879 C 249.014 208.831, 254.706 208.628, 255.715 207.618 C 256.055 207.278, 254.432 207, 252.108 207 C 249.784 207, 248.126 207.396, 248.425 207.879 M 263.745 209.663 C 261.440 210.877, 261.160 211.430, 262.030 213.057 C 262.838 214.566, 262.746 215, 261.619 215 C 260.820 215, 259.960 214.438, 259.708 213.750 C 259.360 212.801, 258.953 212.779, 258.018 213.657 C 256.243 215.324, 266.706 217.442, 270.071 216.097 L 272.500 215.127 270 214.938 C 268.340 214.813, 269.013 214.452, 272 213.865 C 278.094 212.667, 278.253 212.659, 280.250 213.488 C 282.297 214.337, 282.525 213.079, 280.750 210.722 C 279.786 209.441, 278.700 209.230, 276 209.798 C 271.702 210.702, 266.761 210.196, 267.542 208.932 C 268.319 207.675, 267.059 207.918, 263.745 209.663 M 272.813 208.683 C 273.534 208.972, 274.397 208.936, 274.729 208.604 C 275.061 208.272, 274.471 208.036, 273.417 208.079 C 272.252 208.127, 272.015 208.364, 272.813 208.683 M 303.855 209.383 C 305.150 210.098, 307.287 210.477, 308.605 210.225 C 312.548 209.471, 311.322 208.447, 306.250 208.259 C 301.851 208.096, 301.674 208.179, 303.855 209.383 M 219.500 210 C 219.840 210.550, 220.541 211, 221.059 211 C 221.577 211, 222 210.550, 222 210 C 222 209.450, 221.298 209, 220.441 209 C 219.584 209, 219.160 209.450, 219.500 210 M 284.429 210.571 C 285.293 211.436, 286 212.786, 286 213.571 C 286 214.357, 286.462 215, 287.026 215 C 287.610 215, 287.383 213.708, 286.500 212 C 285.647 210.350, 284.478 209, 283.903 209 C 283.328 209, 283.564 209.707, 284.429 210.571 M 290.825 213.326 C 290.452 215.151, 290.592 215.808, 291.218 215.182 C 291.751 214.649, 292.011 213.377, 291.794 212.356 C 291.503 210.981, 291.251 211.233, 290.825 213.326 M 226.269 212.693 C 227.242 212.947, 228.592 212.930, 229.269 212.656 C 229.946 212.382, 229.150 212.175, 227.500 212.195 C 225.850 212.215, 225.296 212.439, 226.269 212.693 M 232.200 213.200 C 230.536 214.864, 230.698 216.053, 232.494 215.364 C 233.316 215.048, 233.763 214.426, 233.488 213.981 C 233.213 213.535, 233.553 212.943, 234.244 212.664 C 234.935 212.386, 235.028 212.122, 234.450 212.079 C 233.873 212.036, 232.860 212.540, 232.200 213.200 M 307.510 214.016 C 307.856 214.575, 308.557 214.774, 309.069 214.457 C 310.456 213.600, 310.198 213, 308.441 213 C 307.584 213, 307.165 213.457, 307.510 214.016 M 5.500 222 C 3.424 223.650, 2.175 225, 2.725 225 C 3.275 225, 5.424 223.650, 7.500 222 C 9.576 220.350, 10.825 219, 10.275 219 C 9.725 219, 7.576 220.350, 5.500 222 M 0 235.392 C 0 238.001, 0.411 239.864, 0.916 239.552 C 1.906 238.940, 1.683 232.350, 0.637 231.304 C 0.287 230.953, 0 232.793, 0 235.392 M 3.195 234.555 C 2.119 235.773, 2.134 236.277, 3.278 237.421 C 4.463 238.606, 4.667 238.383, 4.667 235.905 C 4.667 234.307, 4.629 233.017, 4.583 233.038 C 4.537 233.059, 3.913 233.741, 3.195 234.555 M 21.400 235.500 C 21.400 236.732, 22.048 237.571, 23 237.571 C 23.952 237.571, 24.600 236.732, 24.600 235.500 C 24.600 234.268, 23.952 233.429, 23 233.429 C 22.048 233.429, 21.400 234.268, 21.400 235.500 M 26 235.961 C 26 237.940, 26.502 239, 27.441 239 C 29.952 239, 30.289 236.918, 28.106 234.884 L 26 232.922 26 235.961 M 41.708 234.319 C 40.896 236.436, 43.416 239.754, 44.502 237.997 C 45.072 237.074, 44.921 236.931, 43.985 237.510 C 43.051 238.086, 42.831 237.884, 43.238 236.823 C 43.555 235.996, 43.469 234.759, 43.047 234.075 C 42.460 233.126, 42.143 233.184, 41.708 234.319 M 52.105 234.804 C 51.515 235.906, 51.495 237.170, 52.054 238.054 C 52.845 239.303, 52.988 239.296, 53.103 238 C 53.177 237.175, 53.154 235.892, 53.052 235.150 C 52.938 234.322, 53.339 234.092, 54.088 234.554 C 54.868 235.037, 55.052 234.892, 54.595 234.155 C 53.629 232.590, 53.235 232.693, 52.105 234.804 M 77.579 235.055 C 75.611 237.040, 75.928 238.225, 78.529 238.607 C 79.536 238.755, 80 237.905, 80 235.912 C 80 232.522, 80.068 232.546, 77.579 235.055 M 81.400 235.500 C 81.400 236.732, 82.048 237.571, 83 237.571 C 83.952 237.571, 84.600 236.732, 84.600 235.500 C 84.600 234.268, 83.952 233.429, 83 233.429 C 82.048 233.429, 81.400 234.268, 81.400 235.500 M 6.500 236 C 5.628 237.411, 6.819 239, 8.750 239 C 10.123 239, 10.073 238.761, 8.441 237.498 C 6.559 236.041, 6.558 236.016, 8.414 236.667 C 9.737 237.132, 10.105 236.979, 9.605 236.170 C 8.719 234.736, 7.328 234.660, 6.500 236 M 11.030 237.338 C 11.060 239.434, 11.095 239.440, 12.195 237.544 C 13.321 235.603, 13.336 235.603, 14.156 237.544 C 14.941 239.401, 14.971 239.403, 14.742 237.594 C 14.390 234.824, 10.992 234.590, 11.030 237.338 M 16.459 236.067 C 15.681 237.325, 16.481 238.307, 18.529 238.607 C 19.386 238.733, 20 238.025, 20 236.912 C 20 234.872, 17.557 234.289, 16.459 236.067 M 31.500 236 C 30.628 237.411, 31.819 239, 33.750 239 C 35.123 239, 35.073 238.761, 33.441 237.498 C 31.559 236.041, 31.558 236.016, 33.414 236.667 C 34.737 237.132, 35.105 236.979, 34.605 236.170 C 33.719 234.736, 32.328 234.660, 31.500 236 M 36.500 236 C 35.718 237.266, 37.042 237.266, 39 236 C 40.293 235.165, 40.266 235.029, 38.809 235.015 C 37.879 235.007, 36.840 235.450, 36.500 236 M 56.030 237.338 C 56.058 239.304, 56.154 239.339, 57.092 237.729 C 57.659 236.755, 58.658 236.265, 59.311 236.639 C 59.965 237.014, 60.149 236.935, 59.721 236.465 C 58.103 234.686, 56 235.184, 56.030 237.338 M 62.429 237 C 62.429 238.100, 62.965 239, 63.621 239 C 64.320 239, 64.597 238.174, 64.290 237 C 64.002 235.900, 63.466 235, 63.098 235 C 62.730 235, 62.429 235.900, 62.429 237 M 66.500 236 C 65.628 237.411, 66.819 239, 68.750 239 C 70.123 239, 70.073 238.761, 68.441 237.498 C 66.559 236.041, 66.558 236.016, 68.414 236.667 C 69.737 237.132, 70.105 236.979, 69.605 236.170 C 68.719 234.736, 67.328 234.660, 66.500 236 M 71.030 237.338 C 71.060 239.434, 71.095 239.440, 72.195 237.544 C 73.321 235.603, 73.336 235.603, 74.156 237.544 C 74.941 239.401, 74.971 239.403, 74.742 237.594 C 74.390 234.824, 70.992 234.590, 71.030 237.338 M 17 237.059 C 17 237.641, 17.450 237.840, 18 237.500 C 18.550 237.160, 19 236.684, 19 236.441 C 19 236.198, 18.550 236, 18 236 C 17.450 236, 17 236.477, 17 237.059 M 27 237 C 27 237.550, 27.450 238, 28 238 C 28.550 238, 29 237.550, 29 237 C 29 236.450, 28.550 236, 28 236 C 27.450 236, 27 236.450, 27 237 M 77 237.059 C 77 237.641, 77.450 237.840, 78 237.500 C 78.550 237.160, 79 236.684, 79 236.441 C 79 236.198, 78.550 236, 78 236 C 77.450 236, 77 236.477, 77 237.059 M 37 238 C 35.707 238.835, 35.734 238.971, 37.191 238.985 C 38.121 238.993, 39.160 238.550, 39.500 238 C 40.282 236.734, 38.958 236.734, 37 238" stroke="none" fill="black" fill-rule="evenodd"/>
</svg>